<?xml version="1.0" encoding="utf-8"?>
<!-- Generator: Adobe Illustrator 15.1.0, SVG Export Plug-In . SVG Version: 6.00 Build 0)  -->
<!DOCTYPE svg PUBLIC "-//W3C//DTD SVG 1.1//EN" "http://www.w3.org/Graphics/SVG/1.1/DTD/svg11.dtd">
<svg version="1.1"
	 id="svg5542" inkscape:export-ydpi="200" inkscape:export-xdpi="200" sodipodi:docname="layout.svg" inkscape:version="0.91 r13725" xmlns:dc="http://purl.org/dc/elements/1.1/" xmlns:cc="http://creativecommons.org/ns#" xmlns:rdf="http://www.w3.org/1999/02/22-rdf-syntax-ns#" xmlns:svg="http://www.w3.org/2000/svg" xmlns:sodipodi="http://sodipodi.sourceforge.net/DTD/sodipodi-0.dtd" xmlns:inkscape="http://www.inkscape.org/namespaces/inkscape" inkscape:export-filename="C:\Users\Samahiel\Pictures\EVE\layoutTest.png"
	 xmlns="http://www.w3.org/2000/svg" xmlns:xlink="http://www.w3.org/1999/xlink" x="0px" y="0px" width="595.275px"
	 height="841.89px" viewBox="0 0 595.275 841.89" enable-background="new 0 0 595.275 841.89" xml:space="preserve">
<g>
	<defs>
		
		
			<inkscape:perspective  id="perspective7580" inkscape:persp3d-origin="-307.78543 : 348.76709 : 1" inkscape:vp_z="64.261819 : 524.16079 : 1" inkscape:vp_y="0 : 1000 : 0" inkscape:vp_x="-679.83267 : 524.16079 : 1" sodipodi:type="inkscape:persp3d">
			</inkscape:perspective>
		
			<inkscape:path-effect  id="path-effect4322-8" spacing="0" pattern="m -3783.0597,-22.62548 1,0" effect="skeletal" vertical_pattern="false" fuse_tolerance="0" prop_units="false" tang_offset="0" normal_offset="0" scale_y_rel="false" prop_scale="1" copytype="single_stretched" is_visible="true">
			</inkscape:path-effect>
		
			<inkscape:path-effect  id="path-effect4326-5" spacing="0" pattern="m -3547.8055,-22.62548 1,0" effect="skeletal" vertical_pattern="false" fuse_tolerance="0" prop_units="false" tang_offset="0" normal_offset="0" scale_y_rel="false" prop_scale="1" copytype="single_stretched" is_visible="true">
			</inkscape:path-effect>
		
			<inkscape:path-effect  id="path-effect4330-2" spacing="0" pattern="m -3458.653,126.52706 1,0" effect="skeletal" vertical_pattern="false" fuse_tolerance="0" prop_units="false" tang_offset="0" normal_offset="0" scale_y_rel="false" prop_scale="1" copytype="single_stretched" is_visible="true">
			</inkscape:path-effect>
		
			<inkscape:path-effect  id="path-effect4334-4" spacing="0" pattern="m -3785.7716,-21.269547 1,0" effect="skeletal" vertical_pattern="false" fuse_tolerance="0" prop_units="false" tang_offset="0" normal_offset="0" scale_y_rel="false" prop_scale="1" copytype="single_stretched" is_visible="true">
			</inkscape:path-effect>
		
			<inkscape:path-effect  id="path-effect4338-1" spacing="0" pattern="m -3783.0597,-22.62548 1,0" effect="skeletal" vertical_pattern="false" fuse_tolerance="0" prop_units="false" tang_offset="0" normal_offset="0" scale_y_rel="false" prop_scale="1" copytype="single_stretched" is_visible="true">
			</inkscape:path-effect>
		
			<inkscape:path-effect  id="path-effect4342-1" spacing="0" pattern="m -3783.0597,-22.62548 1,0" effect="skeletal" vertical_pattern="false" fuse_tolerance="0" prop_units="false" tang_offset="0" normal_offset="0" scale_y_rel="false" prop_scale="1" copytype="single_stretched" is_visible="true">
			</inkscape:path-effect>
	</defs>
	
		<sodipodi:namedview  id="base" inkscape:snap-smooth-nodes="true" inkscape:snap-bbox-midpoints="true" inkscape:snap-bbox-edge-midpoints="false" inkscape:window-maximized="1" showguides="true" borderlayer="true" showgrid="false" inkscape:cy="141.77162" inkscape:cx="207.30141" inkscape:zoom="2.8" borderopacity="1.0" bordercolor="#666666" pagecolor="#ffffff" inkscape:object-nodes="true" inkscape:snap-nodes="false" inkscape:snap-others="true" inkscape:guide-bbox="true" inkscape:window-y="-8" inkscape:window-x="1672" inkscape:window-height="1027" inkscape:window-width="1920" inkscape:snap-global="true" inkscape:snap-page="true" inkscape:bbox-nodes="false" inkscape:snap-bbox="true" inkscape:current-layer="layer1" inkscape:document-units="px" inkscape:pageshadow="2" inkscape:pageopacity="0.0">
		<sodipodi:guide  id="guide8788" orientation="0,1" position="-585.88848,1701.0969"></sodipodi:guide>
		<sodipodi:guide  id="guide8961" orientation="0,1" position="-875.71855,1495.4324"></sodipodi:guide>
		<sodipodi:guide  id="guide10005" orientation="0,1" position="792.59893,128.53636"></sodipodi:guide>
		<sodipodi:guide  id="guide10007" orientation="0,1" position="823.27939,27.905156"></sodipodi:guide>
		<sodipodi:guide  id="guide4344" orientation="1,0" position="856.60936,192.93914"></sodipodi:guide>
		<sodipodi:guide  id="guide4346" orientation="1,0" position="133.9561,81.571354"></sodipodi:guide>
		<sodipodi:guide  id="guide4336" orientation="1,0" position="20.903503,81.571308"></sodipodi:guide>
		<sodipodi:guide  id="guide7482" orientation="1,0" position="-652.50001,791.78574"></sodipodi:guide>
		<sodipodi:guide  id="guide8482" orientation="1,0" position="78.597657,36.859005"></sodipodi:guide>
	</sodipodi:namedview>
	<g id="layer1" inkscape:label="Layer 1" inkscape:groupmode="layer">
		<g id="flowRoot6214" transform="matrix(3.1478018,0,0,3.1478018,2168.1674,-1341.7749)">
		</g>
		<g id="g6467" transform="translate(0,76.771594)">
			<g id="g6463">
				<path id="path6284" inkscape:connector-curvature="0" d="M278.14,587.789c-1.23-0.135-5.401-0.561-9.268-0.943
					c-29.867-2.959-61.09-11.836-89.38-25.41C101.478,524.008,44.752,449.563,29.885,365.102
					c-3.496-19.857-3.85-24.355-3.857-48.895c-0.016-25.315,0.775-34.104,4.804-53.989
					c16.692-82.378,70.116-151.971,145.779-189.899c9.104-4.564,10.841-4.989,2.675-0.653
					c-53.914,28.622-96.278,76.7-117.868,133.768c-10.939,28.917-16.102,57.413-16.128,89.042
					c-0.018,20.117,1.69,36.555,5.666,54.548c21.856,98.922,101.249,175.738,200.57,194.053c16.469,3.039,25.669,3.816,45.469,3.844
					c19.56,0.025,27.145-0.543,43.112-3.225c61.468-10.322,117.704-43.889,156.384-93.336
					c25.662-32.803,43.196-72.334,50.078-112.904c4.628-27.276,4.624-58.155-0.008-85.271
					c-13.071-76.522-61.171-143.271-129.791-180.11c-2.953-1.584-5.104-2.886-4.781-2.892c0.935-0.017,19.283,9.69,25.938,13.723
					c49.161,29.787,87.533,73.874,109.988,126.366c9.846,23.011,16.24,46.604,19.892,73.379c1.271,9.311,1.439,13.243,1.439,33.557
					c0,24.871-0.632,32.264-4.463,52.164c-16.152,83.922-71.982,156.096-149.546,193.324c-27.2,13.057-53.31,20.627-85.967,24.93
					c-7.534,0.992-44.997,1.844-51.134,1.164H278.14z"/>
				<path id="path6282" inkscape:connector-curvature="0" d="M285.484,52.327c-2.249,0.114-5.045,1.281-6.701,2.976
					c-4.989,5.103-14.045,27.517-22.774,56.371c-1.595,5.273-3.592,10.783-4.438,12.243c-0.846,1.461-3.563,4.485-6.035,6.72
					l-4.496,4.065l-0.659,16.205c-0.36,8.912-0.553,16.306-0.427,16.431c0.125,0.126,1.361-0.095,2.748-0.489
					c4.158-1.183,12.412-1.023,14.813,0.287c2.187,1.191,4.006,4.002,4.006,6.186c0,0.721,0.398,1.312,0.886,1.312
					c0.569,0,1.046-1.089,1.332-3.037c1.116-7.602,5.895-33.669,9.692-52.89c6.375-32.252,11.609-54.265,14.622-61.473
					c1.305-3.123,1.202-3.978-0.563-4.649C286.923,52.368,286.234,52.289,285.484,52.327z M309.785,52.327
					c-0.751-0.039-1.44,0.041-2.008,0.256c-1.765,0.671-1.868,1.526-0.563,4.649c3.012,7.208,8.248,29.221,14.623,61.473
					c3.8,19.22,8.574,45.288,9.69,52.89c0.286,1.948,0.765,3.037,1.332,3.037c0.488,0,0.887-0.591,0.887-1.312
					c0-2.184,1.819-4.995,4.005-6.186c2.401-1.31,10.655-1.47,14.813-0.287c1.386,0.395,2.623,0.615,2.748,0.489
					c0.126-0.125-0.066-7.519-0.428-16.431l-0.656-16.205l-4.499-4.065c-2.472-2.235-5.189-5.259-6.034-6.72
					c-0.846-1.46-2.863-7.042-4.484-12.405c-8.595-28.427-17.783-51.152-22.728-56.208
					C314.828,53.609,312.034,52.441,309.785,52.327z M266.426,53.192c-0.511,0-2.637,1.257-4.724,2.794
					c-9.986,7.352-20.184,27.023-26.379,50.895c-4.326,16.668-4.062,16.039-8.854,21.186c-2.407,2.585-4.753,5.408-5.211,6.273
					c-0.573,1.083-0.978,6.278-1.294,16.619c-0.253,8.274-0.691,15.598-0.976,16.274c-0.432,1.031-0.314,1.152,0.715,0.757
					c4.656-1.788,11.276-1.82,15.708-0.077c1.452,0.57,1.678-1.415,2.184-19.167l0.421-14.701l5.643-5.628
					c6.303-6.289,5.866-5.408,11.109-22.513c5.012-16.35,10.035-30.189,14.514-39.992l1.928-4.219l-1.928-4.25
					C268.191,55.036,266.951,53.192,266.426,53.192z M328.849,53.192c-0.511,0-1.799,1.872-2.884,4.19l-1.963,4.191l1.956,4.277
					c4.547,9.955,12.095,31.328,17.684,50.073c1.788,5.998,2.889,7.639,9.379,13.971l4.252,4.149l0.41,14.701
					c0.225,8.085,0.567,15.798,0.763,17.141c0.282,1.941,0.571,2.355,1.409,2.026c4.432-1.743,11.053-1.709,15.709,0.077
					c1.031,0.396,1.145,0.275,0.702-0.757c-0.289-0.676-0.724-7.992-0.966-16.257c-0.306-10.448-0.696-15.514-1.281-16.62
					c-0.463-0.874-2.812-3.704-5.219-6.289c-4.792-5.146-4.53-4.518-8.855-21.186c-6.196-23.872-16.39-43.543-26.376-50.895
					C331.48,54.449,329.356,53.192,328.849,53.192z M239.241,65.016l-2.259,1.207c-2.726,1.457-8.488,7.191-11.63,11.577
					c-5.313,7.418-7.428,13.833-10.437,31.641c-2.614,15.476-4.442,21.453-7.716,25.236c-1.388,1.604-2.881,4.131-3.316,5.617
					c-0.917,3.122-1.082,19.896-0.288,29.376c0.46,5.499,0.644,6.159,1.579,5.676c0.582-0.3,2.582-0.902,4.44-1.339
					c3.155-0.74,3.487-1.008,5.021-4.035c1.93-3.809,2.722-10.717,2.763-24.104c0.014-4.746,0.328-9.713,0.697-11.041
					c0.409-1.47,2.305-4.221,4.846-7.031c2.296-2.539,4.624-5.479,5.176-6.532c0.551-1.053,1.967-5.797,3.148-10.544
					s3.193-11.795,4.471-15.663c2.393-7.243,7.531-19.862,8.643-21.221c0.898-1.1,0.205-2.662-2.643-5.944L239.241,65.016z
					 M356.536,65.588c-1.343-0.031-2.405,1.094-4.616,4.285l-1.739,2.508l2.918,6.226c3.922,8.364,7.674,19.426,10.778,31.79
					c2.74,10.917,3.051,11.528,9.28,18.32c1.918,2.09,3.611,4.657,4.003,6.072c0.375,1.349,0.687,6.479,0.704,11.4
					c0.03,13.157,0.822,19.943,2.777,23.804c1.522,3.004,1.86,3.275,5.013,4.013c1.859,0.435,3.811,1.023,4.337,1.307
					c1.383,0.743,1.958-4.664,2.109-19.856c0.141-14.322-0.27-16.431-4.033-20.78c-3.274-3.783-5.102-9.76-7.717-25.236
					c-2.487-14.732-4.378-21.372-7.809-27.436c-3.04-5.373-11.597-14.823-14.519-16.033
					C357.462,65.738,356.984,65.599,356.536,65.588z M216.107,78.065c-0.725-0.065-1.645,0.656-3.117,2.133
					c-3.473,3.482-7.409,10.084-9.313,15.621c-0.823,2.393-2.97,10.521-4.771,18.063c-4.039,16.922-5.862,22.437-8.688,26.285
					l-2.199,2.998v13.367c0,12.537,0.953,29.844,1.713,31.072c0.188,0.303,1.315-0.899,2.507-2.668
					c1.191-1.769,3.722-4.307,5.624-5.642c3.163-2.219,3.424-2.589,3.073-4.343c-0.21-1.055-0.397-8.964-0.419-17.576
					c-0.041-17.836,0.338-20.074,4.09-24.179c3.112-3.405,4.594-8.12,7.059-22.48c2.404-13.997,3.57-19.06,5.572-24.168
					c1.358-3.471,1.473-4.296,0.813-5.892C217.357,78.983,216.829,78.13,216.107,78.065z M379.297,78.088
					c-0.817-0.075-1.349,0.805-2.091,2.598c-0.677,1.635-0.571,2.414,0.812,5.889c1.933,4.865,3.016,9.558,5.557,24.14
					c2.512,14.411,3.985,19.088,7.086,22.48c3.708,4.058,4.129,6.428,4.11,23.22c-0.008,8.085-0.202,15.996-0.43,17.578
					l-0.412,2.875l3.487,2.442c1.919,1.343,4.415,3.842,5.545,5.555c1.128,1.711,2.248,2.913,2.487,2.671
					c0.824-0.835,1.801-17.661,1.801-31.004v-13.367l-2.199-2.998c-2.49-3.393-4.738-9.611-7.111-19.679
					c-6.236-26.462-8.474-32.386-14.841-39.263C381.216,79.192,380.113,78.163,379.297,78.088z M401.57,95.048
					c-0.596,0.05-1.388,0.611-2.973,1.911c-1.933,1.584-2.79,2.729-2.572,3.434c0.18,0.581,1.748,6.951,3.488,14.158
					c3.753,15.548,5.471,20.524,8.713,25.232l2.417,3.511l-0.389,16.468c-0.215,9.058-0.732,19.606-1.149,23.445
					c-0.904,8.328-0.443,10.222,3.463,14.275c1.44,1.494,2.839,2.717,3.106,2.717c0.73,0,2.916-7.857,4-14.38
					c1.267-7.606,2.275-20.563,2.275-29.221c0-6.207-0.171-7.281-1.535-9.654c-2.272-3.95-4.664-11.11-6.52-19.51
					c-3.458-15.667-8.378-29.553-11.329-31.975C402.216,95.17,401.93,95.017,401.57,95.048z M193.611,95.11
					c-1.225,0.103-2.272,1.854-4.386,6.349c-2.717,5.783-5.514,14.992-7.882,25.956c-1.798,8.323-4.194,15.534-6.491,19.528
					c-1.364,2.373-1.535,3.447-1.535,9.654c0,14.055,1.981,31.205,4.573,39.608c0.677,2.197,1.447,3.994,1.711,3.994
					c0.265,0,1.667-1.223,3.115-2.717c3.742-3.857,4.337-6.407,3.416-14.598c-0.412-3.661-0.918-14.067-1.127-23.126l-0.377-16.47
					l2.376-3.449c3.342-4.853,4.506-8.235,8.716-25.287c4.105-16.634,4.12-15.577-0.213-18.666
					C194.763,95.355,194.169,95.063,193.611,95.11z M175.274,116.043c-0.405-0.004-0.811,0.285-1.374,0.793
					c-5.401,4.888-11.297,30.693-11.891,52.042c-0.289,10.39-0.164,12.621,1.028,18.377c1.658,8.015,4.366,16.215,8.278,25.085
					l2.959,6.713l0.353-4.475c0.194-2.46,0.875-5.918,1.513-7.683l1.158-3.211l-1.708-5.411c-2.679-8.479-4.104-18.291-4.918-33.867
					l-0.751-14.383l2.587-5.118c2.847-5.635,4.057-9.273,5.942-17.857l1.256-5.72l-1.702-2.458
					C176.621,116.873,175.949,116.05,175.274,116.043z M420.128,116.148c-0.474,0-1.698,1.156-2.721,2.566l-1.858,2.563l1.264,5.745
					c1.891,8.609,3.1,12.244,5.949,17.882l2.583,5.118l-0.75,14.383c-0.813,15.55-2.238,25.39-4.901,33.819L418,203.586l1.334,4.071
					c0.735,2.24,1.363,5.72,1.394,7.734h-0.002l0.056,3.662l2.149-4.475c2.927-6.093,6.402-15.606,8.452-23.142
					c1.593-5.855,1.713-7.124,1.695-19.682c-0.004-9.496-0.321-15.345-1.08-19.997c-1.306-8.001-3.984-20.089-5.642-25.453
					C425,121.911,421.465,116.148,420.128,116.148L420.128,116.148z M158.508,135.642c-0.676,0-3.589,5.801-5.127,10.212
					c-2.295,6.585-2.15,20.583,0.492,47.312c1.477,14.938,2.505,18,10.35,30.84c2.088,3.417,3.341,4.557,3.341,3.037
					c0-0.351,1.046-1.795,2.323-3.209l2.323-2.57l-2.916-6.28c-3.575-7.703-7.693-19.76-9.089-26.61
					c-2.229-10.939-1.902-24.253,1.019-41.478l1.289-7.603l-1.749-1.825C159.803,136.465,158.788,135.642,158.508,135.642z
					 M436.759,135.642c-0.279,0-1.284,0.813-2.233,1.803l-1.726,1.802l1.24,7.306c4.772,28.083,2.707,45.243-8.3,68.93l-2.684,5.781
					l2.323,2.57c1.277,1.415,2.323,2.858,2.323,3.209c0,4.292,10.932-15.113,12.115-21.508c0.922-4.974,2.47-20.884,3.288-33.781
					c1.136-17.92,0.387-23.827-4.146-32.771C438.03,137.146,437.038,135.642,436.759,135.642z M145.615,153.607
					c-0.042,0.001-0.074,0.013-0.096,0.034c-0.941,0.942-2.882,10.947-2.882,14.861c0.001,4.52,1.584,15.571,3.534,24.665
					c0.565,2.637,1.257,8.534,1.538,13.103c0.355,5.757,0.946,9.584,1.921,12.463c2.835,8.37,10.009,22.083,13.606,26.008
					l1.284,1.402l1.843-1.362c1.012-0.749,1.84-1.416,1.84-1.482c0-0.067-0.401-1.093-0.895-2.277
					c-0.493-1.186-1.108-3.861-1.366-5.947c-0.357-2.883-1.12-4.796-3.185-7.99c-4.324-6.691-9.133-16.093-9.825-19.217
					c-1.639-7.392-3.879-32.656-3.896-43.831c-0.008-7.398-0.073-7.781-1.603-9.218C146.667,154.098,145.91,153.602,145.615,153.607
					L145.615,153.607z M449.658,153.614c-0.298-0.008-1.056,0.485-1.823,1.207c-1.519,1.426-1.596,1.847-1.596,8.686
					c0,8.2-1.468,27.553-2.896,38.152c-0.818,6.076-1.392,8.044-3.78,12.92c-1.551,3.164-4.385,8.241-6.299,11.284
					c-2.763,4.393-3.576,6.303-3.944,9.27c-0.255,2.055-0.866,4.704-1.36,5.889c-1.121,2.696-1.123,3.278-0.016,3.278
					c0.485,0,1.265,0.463,1.733,1.026c0.766,0.924,1.025,0.833,2.57-0.897c3.615-4.046,10.524-17.312,13.385-25.695
					c0.975-2.86,1.57-6.646,1.908-12.145c0.271-4.394,1.403-12.734,2.518-18.535c2.788-14.492,3.139-21.769,1.384-28.711
					c-0.747-2.952-1.505-5.515-1.685-5.695C449.735,153.626,449.7,153.615,449.658,153.614L449.658,153.614z M251.289,168.878
					c-6.069,0-9.897,1.114-13.426,3.902c-4.889,3.865-9.933,10.442-13.417,17.496c-4.525,9.161-5.082,12.246-5.1,27.919
					c-0.01,12.889,0.02,13.193,1.268,12.867c0.704-0.184,1.281-0.561,1.281-0.835c0-1.799,2.818-16.486,3.922-20.441
					c4.12-14.755,11.053-25.919,19.361-31.179c3.027-1.916,9.228-3.976,11.969-3.976c1.67,0,1.854-0.177,1.488-1.439
					C257.804,170.3,255.38,168.878,251.289,168.878z M343.978,168.878c-4.091,0-6.515,1.422-7.347,4.314
					c-0.373,1.295-0.192,1.439,1.811,1.439c3.011,0,9.123,1.972,12.242,3.951c8.239,5.226,15.405,16.745,19.416,31.204
					c1.123,4.05,3.913,18.679,3.913,20.517c0,0.316,0.434,0.575,0.96,0.575c1.427,0,1.387-24.019-0.048-30
					c-1.432-5.966-6.66-16.27-10.805-21.295C357.241,171.245,352.791,168.878,343.978,168.878L343.978,168.878z M227.662,169.627
					c-2.985,0.079-6.157,0.702-8.194,1.741c-4.546,2.319-8.899,9.559-11.382,18.922c-0.913,3.444-1.18,6.68-1.155,14.062
					c0.031,9.81,0.533,14.252,2.904,25.706h-0.005c1.468,7.093,1.333,6.984,5.028,4.07l1.598-1.262l0.018-15.216
					c0.014-14.246,0.107-15.501,1.512-19.691c2.995-8.94,8.175-17.735,14.014-23.796l3.221-3.341l-2.668-0.723
					C231.178,169.726,229.453,169.579,227.662,169.627L227.662,169.627z M367.605,169.627c-1.79-0.048-3.516,0.099-4.889,0.471
					l-2.67,0.723l3.222,3.341c4.229,4.39,7.701,9.546,10.771,15.997c4.425,9.292,4.735,11.1,4.753,27.731l0.016,14.816l2.235,1.586
					h0.004c1.229,0.873,2.428,1.613,2.664,1.643c0.547,0.07,2.223-7.301,3.54-15.562c1.472-9.231,1.431-24.312-0.083-30.084
					c-2.442-9.322-6.816-16.599-11.371-18.922C373.76,170.329,370.59,169.706,367.605,169.627L367.605,169.627z M137.348,174.078
					c-0.708-0.037-1.22,0.578-1.781,1.929c-1.253,3.025-0.923,9.055,0.886,16.201c0.89,3.516,3.079,13.346,4.866,21.845
					c1.787,8.498,3.812,17.274,4.499,19.502c1.467,4.746,4.604,10.131,9.867,16.935l3.779,4.888l1.479-3.35l1.479-3.349l-2.497-3.31
					c-3.621-4.8-10.511-18.354-12.781-25.144c-1.529-4.575-2.019-7.308-2.231-12.465c-0.36-8.708-4.592-31.844-6.024-32.934
					C138.269,174.355,137.774,174.1,137.348,174.078z M457.64,174.09c-1.229,0.194-2.479,2.367-3.128,6.027
					c-0.37,2.08-1.39,7.521-2.266,12.091c-0.877,4.57-1.724,11.428-1.882,15.241c-0.227,5.454-0.691,8.139-2.184,12.593
					c-2.777,8.288-9.062,20.469-13.54,26.246l-1.791,2.308l1.376,3.252c0.756,1.788,1.578,3.126,1.826,2.973
					c0.917-0.567,7.618-9.681,9.85-13.396c3.029-5.048,4.17-8.93,8.046-27.372c1.788-8.499,3.97-18.326,4.851-21.837
					c1.795-7.156,2.131-13.245,0.896-16.228C459.108,174.571,458.377,173.974,457.64,174.09z M209.212,177.237
					c-0.719-0.036-2.358,0.565-5.023,1.827c-5.427,2.567-9.231,6.242-11.348,10.959c-1.574,3.508-1.738,4.572-1.698,11.025
					c0.085,14.11,4.124,28.992,10.626,39.157c1.217,1.901,2.431,3.456,2.699,3.456c0.268-0.001,1.327-1.054,2.355-2.341
					c1.835-2.301,1.855-2.402,1.085-5.912c-2.512-11.43-3.362-17.833-3.704-27.859c-0.469-13.765,0.335-18.215,5.331-29.56
					C209.745,177.511,209.644,177.259,209.212,177.237L209.212,177.237z M386.053,177.237c-0.43,0.023-0.53,0.275-0.32,0.751
					c4.442,10.088,5.539,15.236,5.539,26.04c0,9.325-0.61,14.737-2.965,26.333l-1.647,8.111l2.147,2.592l2.144,2.59l1.442-1.753
					c3.943-4.801,8.892-17.847,10.678-28.141c1.067-6.153,1.412-17.129,0.636-20.272c-1.531-6.199-5.989-11.283-12.662-14.439
					C388.401,177.797,386.769,177.198,386.053,177.237z M337.344,177.369c-0.832-0.018-1.636,0.034-2.4,0.161l-2.317,0.385
					l1.134,2.354c1.912,3.968,4.262,16.095,7.322,37.772c3.675,26.03,4.181,28.156,7.599,31.914
					c3.131,3.441,6.886,4.223,14.178,2.952c6.133-1.07,6.723-0.914,9.795,2.586c5.165,5.881,9.061,17.273,9.084,26.562
					c0.025,9.734-3.11,15.126-12.23,21.02c-7.933,5.128-3.845,4.823-64.842,4.823h-54.33l-9.89-1.792
					c-10.835-1.963-13.987-3.093-18.849-6.765c-7.49-5.653-9.529-16.17-5.71-29.436c2.014-6.996,7.218-15.548,10.542-17.329
					c0.787-0.421,2.93-0.313,6.619,0.33c7.633,1.332,11.319,0.445,14.651-3.513c2.636-3.135,3.992-9.076,7.115-31.181
					c3.687-26.09,5.876-36.799,8.082-39.526c0.915-1.132-3.644-1.658-7.667-0.886c-14.525,2.788-25.211,19.311-29.158,45.088
					c-0.592,3.866-1.195,7.638-1.338,8.379c-0.174,0.893-1.291,1.782-3.308,2.632c-9.948,4.194-17.784,14.23-21.346,27.337
					c-1.867,6.872-2.03,20.508-0.339,28.427c4.454,20.859,15.753,41.854,33.682,62.595c5.148,5.955,6.443,8.896,8.883,20.158
					c1.38,6.367,2.807,23.389,2.166,25.84c-0.193,0.738-0.185,1.777,0.02,2.311c0.332,0.861,6.449,0.953,53.536,0.809l53.162-0.162
					l0.22-8.311c0.269-10.121,1.094-16.541,3.193-24.887c2.074-8.242,2.942-10.23,5.859-13.398
					c6.566-7.131,15.978-20.008,22.092-30.221c5.838-9.753,11.307-23.708,13.606-34.717c1.677-8.025,1.518-21.658-0.33-28.444
					c-3.568-13.099-11.443-23.185-21.348-27.342c-3.217-1.35-3.282-1.468-3.991-7.171c-2.059-16.551-8.055-32.377-15.301-40.384
					C350.392,181.038,343.171,177.494,337.344,177.369L337.344,177.369z M128.046,195.545c-1.139,0.046-1.356,1.466-1.746,5.108
					c-1.115,10.414,2.727,23.834,12.735,44.492c5.237,10.811,11.15,19.673,15.02,22.514c1.631,1.196,3.222,2.182,3.536,2.189
					c0.314,0.009,1.476-1.028,2.582-2.308l2.01-2.325l-1.423-2.973c-0.783-1.635-2.534-4.256-3.894-5.825
					c-3.766-4.346-7.984-10.094-10.586-14.424c-2.565-4.271-4.371-10.424-7.461-25.433c-1.078-5.238-2.395-11.44-2.927-13.781
					l-0.968-4.257l-3.591-1.76C129.744,195.985,128.73,195.518,128.046,195.545z M467.226,195.545
					c-0.684-0.032-1.7,0.438-3.289,1.218l-3.587,1.76l-1.288,5.791c-0.709,3.186-2.314,10.621-3.565,16.523
					c-1.253,5.903-2.813,12.445-3.463,14.539c-1.308,4.201-7.854,14.479-12.539,19.69c-1.647,1.833-3.766,4.834-4.706,6.67
					l-1.71,3.338l1.946,2.384c1.07,1.312,2.181,2.388,2.47,2.396c0.288,0.006,1.804-0.868,3.366-1.943
					c5.101-3.51,11.713-14.169,19.053-30.713c7.14-16.096,10.008-27.629,9.063-36.449
					C468.579,197.041,468.364,195.597,467.226,195.545z M187.7,196.683l-3.596,3.515c-11.718,11.462-7.855,30.209,10.159,49.305
					c2.274,2.411,4.329,4.384,4.563,4.384c0.236,0,1.205-1.578,2.152-3.508l1.721-3.512l-3.146-4.818
					c-6.26-9.587-10.508-23.851-11.413-38.299L187.7,196.683z M407.569,196.683l-0.151,3.515
					c-0.689,16.167-5.025,31.662-11.743,41.972l-2.685,4.124l1.819,3.81h0.003l1.819,3.81l3.127-3.049
					c4.653-4.54,10.947-13.181,14.119-19.388c6.218-12.167,5.234-23.503-2.715-31.279L407.569,196.683L407.569,196.683z
					 M420.5,222.887l-1.1,3.196c-2.685,7.809-9.207,17.971-16.8,26.175l-4.703,5.08l0.959,4.006l0.959,4.005l3.783-2.055
					c8.242-4.478,16.806-13.209,20.444-20.842c3.437-7.211,3.034-12.652-1.272-17.178L420.5,222.887z M174.855,223.07l-2,1.685
					c-2.685,2.259-4.259,6.519-3.877,10.494c0.862,8.979,11.348,21.945,22.748,28.132c2.004,1.087,3.82,1.982,4.035,1.993
					c0.215,0.01,0.756-1.694,1.199-3.786l0.805-3.804l-4.896-5.305c-7.78-8.423-14.33-18.583-16.956-26.303L174.855,223.07z
					 M123.109,228.017c-0.212,0.008-0.372,0.037-0.46,0.091c-1.008,0.623-0.071,10.195,1.49,15.232
					c1.909,6.158,3.712,9.54,10.23,19.175c10.2,15.077,15.425,20.433,22.497,23.06c4.639,1.724,5.09,1.787,6.036,0.843
					c0.516-0.516,0.033-1.596-1.788-3.996c-2.133-2.813-3.396-5.891-3.445-8.4c-0.007-0.352-1.162-1.308-2.568-2.123
					c-7.249-4.202-13.884-14.171-22.765-34.217c-3.693-8.337-3.741-8.408-6.384-9.184
					C124.857,228.173,123.745,227.994,123.109,228.017z M472.16,228.017c-0.635-0.023-1.747,0.157-2.846,0.481
					c-2.643,0.776-2.69,0.847-6.386,9.184c-8.88,20.045-15.512,30.015-22.761,34.217c-1.407,0.815-2.554,1.771-2.571,2.123
					c-0.049,2.51-1.313,5.588-3.444,8.4c-1.82,2.4-2.304,3.48-1.787,3.996c0.945,0.946,1.05,0.933,5.85-0.812
					c7.237-2.626,12.378-7.859,22.683-23.091c6.52-9.635,8.321-13.017,10.231-19.175c1.56-5.038,2.497-14.61,1.489-15.232
					C472.53,228.053,472.372,228.024,472.16,228.017z M168.833,246.968c-0.767-0.065-1.504,0.391-2.36,1.328
					c-2.968,3.246-4.264,7.72-3.387,11.702c1.215,5.521,12.586,13.541,23.014,16.23c2.637,0.681,5.873,1.254,7.191,1.273
					l2.396,0.034v-4.463v-4.464l-3.354-1.693c-7.08-3.575-15.369-10.599-20.09-17.022
					C170.851,247.997,169.818,247.052,168.833,246.968z M426.435,246.968c-0.986,0.083-2.018,1.029-3.41,2.925
					c-4.779,6.502-14.861,14.919-20.83,17.393c-1.955,0.81-1.977,0.865-1.977,5.534v4.715h1.816c3.33,0,11.874-2.521,16.609-4.901
					c6.285-3.159,12.788-9.229,13.538-12.637c0.877-3.981-0.419-8.456-3.387-11.702C427.938,247.359,427.2,246.903,426.435,246.968z
					 M277.855,247.547c-4.654,0.059-9.164,0.438-13.01,1.174c-7.916,1.514-14.932,3.792-19.143,6.215l-2.717,1.562v4.448
					c0,2.446,0.131,4.447,0.291,4.447s1.33-0.705,2.598-1.565c2.968-2.014,6.62-2.532,14.623-2.076
					c7.596,0.434,13.045,1.731,19.341,4.606c7.11,3.251,7.071,2.927,2.417,19.976c-1.561,5.718-2.838,10.516-2.838,10.66
					c0,0.259,4.281,1.229,10.186,2.309c4.738,0.866,18.999,0.271,23.893-0.999l4.355-1.13l-0.359-2.307
					c-0.197-1.27-1.368-9.07-2.603-17.331c-3.331-22.292-3.791-23.518-9.807-26.097
					C299.017,248.838,288.091,247.417,277.855,247.547z M124.38,255.017c-0.183,0.001-0.381,0.016-0.598,0.04
					c-1.055,0.116-2.547,0.617-3.316,1.109c-1.164,0.746-1.34,1.302-1.044,3.303c0.596,4.021,3.349,11.696,6.077,16.94
					c5.295,10.178,19.418,20.415,31.519,22.844c1.406,0.283,2.623,0.546,2.706,0.583c0.081,0.04-0.022-1.161-0.229-2.667
					c-0.206-1.507-0.09-3.774,0.259-5.037l0.634-2.295l-2.644-0.777c-8.845-2.61-15.836-9.786-29.287-30.06
					C126.276,255.714,125.661,255.013,124.38,255.017z M470.89,255.017c-1.28-0.004-1.898,0.696-4.079,3.983
					c-13.491,20.336-20.431,27.445-29.369,30.084c-2.374,0.701-2.665,0.977-2.238,2.138c0.269,0.733,0.474,2.939,0.453,4.902
					l-0.037,3.571l2.603-0.485c11.896-2.223,26.23-12.583,31.547-22.801c2.729-5.244,5.481-12.919,6.076-16.94
					c0.297-2.001,0.12-2.558-1.042-3.303c-0.77-0.492-2.262-0.994-3.318-1.109C471.269,255.033,471.072,255.018,470.89,255.017
					L470.89,255.017z M163.763,267.386l-1.277,1.623c-3.249,4.131-2.073,8.972,3.454,14.197c4.286,4.055,6.629,5.21,11.778,5.812
					c6.565,0.767,17.833,0.76,18.31-0.012c0.229-0.37,0.221-2.36-0.018-4.422l-0.436-3.749l-3.3-0.426
					c-9.009-1.162-17.284-4.496-24.214-9.76L163.763,267.386L163.763,267.386z M431.504,267.386l-4.296,3.264
					c-6.811,5.173-14.98,8.503-23.87,9.728c-2.946,0.406-2.954,0.414-3.355,3.347c-0.221,1.616-0.403,3.617-0.403,4.447
					c0,1.478,0.124,1.512,5.912,1.504c8.029-0.008,15.97-0.985,18.472-2.28c3.17-1.64,8.527-7.012,9.793-9.819
					c1.328-2.945,0.973-6.094-0.972-8.566L431.504,267.386z M120.478,274.988c-0.413-0.005-1.631,0.732-2.706,1.637
					c-3.724,3.133-3.937,8.56-0.597,15.219c4.806,9.58,12.725,15.118,24.731,17.291c7.098,1.285,21.421,1.299,22.481,0.021
					c0.669-0.809,0.583-1.226-0.484-2.397c-0.711-0.78-1.624-2.064-2.032-2.855c-0.478-0.927-1.327-1.44-2.385-1.44
					c-5.723,0-16.185-4.506-23.822-10.261c-6.012-4.529-9.655-8.501-12.424-13.54C122.132,276.644,120.889,274.996,120.478,274.988
					L120.478,274.988z M474.926,274.988c-0.487,0.004-1.791,1.656-2.899,3.674c-2.768,5.039-6.409,9.011-12.422,13.54
					c-7.638,5.755-18.1,10.261-23.822,10.261c-1.058,0-1.907,0.514-2.385,1.44c-0.409,0.791-1.321,2.075-2.032,2.855
					c-1.114,1.225-1.173,1.566-0.417,2.478c0.771,0.93,2.104,1.015,11.12,0.709c11.31-0.384,16.184-1.325,22.525-4.352
					c9.039-4.313,17.161-16.635,15.787-23.949C479.934,279.256,476.424,274.976,474.926,274.988z M166.008,288.356
					c-1.09,0.019-1.696,0.856-2.641,2.684c-1.422,2.75-1.133,6.904,0.744,10.67c1.629,3.271,2.705,4.225,5.974,5.306
					c2.328,0.77,13.082,0.123,17.615-1.06c5.927-1.546,11.813-3.551,11.83-4.024c0.004-0.234-0.487-2.548-1.094-5.141l-1.104-4.712
					l-4.177,0.384c-2.299,0.212-7.632,0.104-11.85-0.238c-6.434-0.52-8.286-0.926-11.487-2.504
					C167.997,288.822,166.857,288.342,166.008,288.356z M429.259,288.356c-0.848-0.014-1.988,0.466-3.811,1.364
					c-3.197,1.576-5.063,1.984-11.487,2.51c-4.22,0.345-9.396,0.458-11.504,0.249l-3.836-0.38l-1.36,5.18l-1.361,5.177l4.878,1.531
					c2.681,0.842,6.456,1.848,8.39,2.233c1.935,0.388,4.091,0.835,4.794,0.995c2.826,0.636,11.554-0.078,13.517-1.106
					c4.154-2.176,6.665-10.733,4.422-15.069C430.955,289.212,430.35,288.374,429.259,288.356z M475.535,301.036l-2.024,1.931
					c-7.094,6.758-19.285,10.354-35.101,10.362h-5.595v3.827c0,2.231-0.514,5.181-1.231,7.07c-1.364,3.591-1.442,3.479,3.15,4.379
					v0.002c9.359,1.831,21.789-0.898,32.203-7.075c10.466-6.205,13.292-11.296,9.929-17.889L475.535,301.036L475.535,301.036z
					 M119.686,301.125l-1.308,2.562c-1.529,2.998-1.679,6.43-0.389,8.925c2.985,5.771,16.033,13.169,27.604,15.649
					c2.417,0.52,5.852,0.966,7.633,0.994c2.965,0.048,10.248-0.993,11.243-1.606c0.229-0.143-0.129-1.699-0.799-3.461
					c-0.705-1.854-1.218-4.814-1.218-7.031v-3.826h-5.61c-15.325,0-27.033-3.276-34.149-9.552L119.686,301.125z M200.941,305.198
					l-7.406,2.128c-9.475,2.724-17.18,3.717-21.959,2.833c-4.129-0.764-4.854-0.402-5.968,2.972
					c-0.903,2.738-0.336,7.783,1.289,11.462c1.286,2.91,1.873,3.418,4.768,4.12c3.949,0.958,12.139-0.734,20.829-4.304
					c6.223-2.556,13.421-6.418,13.421-7.2c0-0.292-0.696-2.074-1.548-3.962c-0.85-1.889-1.968-4.473-2.485-5.743L200.941,305.198
					L200.941,305.198z M395.679,305.83c-0.86,0.063-1.521,1.219-3.31,5.382c-1.328,3.099-2.479,5.892-2.556,6.21
					c-0.177,0.734,9.196,5.574,15.514,8.012c2.65,1.021,6.828,2.298,9.283,2.838c4.479,0.982,9.162,0.835,11.396-0.359
					c1.694-0.908,3.563-5.557,3.978-9.891c0.461-4.836-1.082-8.313-3.559-8.018c-6.521,0.779-14.085,0.139-21.412-1.813
					c-4.219-1.123-8.247-2.172-8.949-2.328C395.929,305.834,395.802,305.82,395.679,305.83z M207.28,320.521
					c-11.363,6.116-23.515,10.6-30.26,11.165l-4.484,0.375l0.325,2.43c0.442,3.297,2.672,6.229,5.826,7.662
					c5.048,2.291,11.621,1.215,20.036-3.283c5.069-2.709,13.584-8.811,13.584-9.734C212.307,328.157,207.715,320.287,207.28,320.521
					z M388.075,320.556l-2.395,4.216c-1.319,2.319-2.478,4.378-2.571,4.573c-0.28,0.577,8.313,6.751,12.928,9.287
					c2.348,1.291,5.902,2.869,7.9,3.507c9.462,3.025,17.482-0.295,18.468-7.648l0.326-2.426l-4.386-0.369
					c-5.868-0.493-15.082-3.526-23.428-7.709L388.075,320.556z M125.208,323.306l-1.51,1.759c-1.31,1.522-1.516,2.415-1.499,6.677
					c0.016,5.738,1.304,9.194,4.392,11.794c2.582,2.172,9.105,5.295,13.562,6.492c1.894,0.51,4.702,0.945,6.239,0.969
					c3.543,0.053,14.645-3.631,21.169-7.023l4.951-2.576l-1.167-2.292c-0.643-1.262-1.358-3.557-1.591-5.101
					c-0.571-3.81-1.707-4.315-6.766-3.021c-9.167,2.349-22.774,0.155-33.377-5.378L125.208,323.306z M470.059,323.306l-4.399,2.299
					c-10.602,5.533-24.212,7.727-33.379,5.378c-5.06-1.295-6.194-0.789-6.766,3.021c-0.232,1.544-0.948,3.839-1.592,5.101
					l-1.167,2.292l4.941,2.57c2.718,1.414,7.93,3.576,11.581,4.809c3.654,1.232,7.802,2.244,9.222,2.252
					c3.531,0.016,9.306-1.564,14.127-3.865c8.113-3.871,10.419-7.279,10.441-15.421c0.013-4.262-0.186-5.154-1.496-6.677
					L470.059,323.306z M214.513,331.992c-0.078-0.106-2.261,1.414-4.85,3.377c-6.424,4.875-16.377,9.701-21.645,10.498
					c-4.311,0.652-8.174,0.23-10.784-1.174l-1.515-0.813l0.274,6.297c0.362,8.297,2.709,12.914,7.549,14.846
					c6.143,2.449,15.333-1.842,24.677-11.518c4.305-4.455,9.34-11.395,10.175-14.023
					C218.711,338.489,217.296,335.759,214.513,331.992L214.513,331.992z M381.362,332.059l-2.357,3.526
					c-2.3,3.441-2.332,3.576-1.356,5.496c2.011,3.963,6.565,9.75,11.156,14.174c5.065,4.881,8.784,7.482,13.332,9.328
					c3.681,1.494,8.952,1.238,11.37-0.553c4.153-3.076,5.882-7.5,5.882-15.092c0.005-4.963,0.003-4.973-1.433-4.201
					c-2.533,1.363-6.439,1.777-10.707,1.131c-5.289-0.801-15.34-5.658-21.411-10.351L381.362,332.059z M220.894,341.293
					l-2.394,3.881c-5.623,9.111-13.852,16.979-21.964,20.996c-3.713,1.842-5.369,2.289-8.738,2.361l-4.159,0.086l0.332,1.918
					c1.233,7.166,4.696,12.25,10.085,14.811c3.566,1.697,5.812,1.656,9.676-0.178c6.535-3.102,17.695-16.75,24.215-29.615
					l1.637-3.23l-2.727-3.379c-1.499-1.859-3.454-4.34-4.344-5.514L220.894,341.293z M374.574,342.272
					c-0.723,0.254-8.23,10.012-8.23,10.697c0,1.256,3.354,7.33,7.482,13.549c6.652,10.018,14.309,17.617,19.682,19.531
					c2.897,1.033,4.176,0.91,7.706-0.734c5.269-2.453,8.892-7.764,10.087-14.781l0.327-1.916l-4.074-0.045
					c-3.338-0.039-4.913-0.465-8.739-2.359c-8.139-4.033-16.484-11.932-21.692-20.531
					C375.941,343.729,374.794,342.194,374.574,342.272z M422.589,344.635v4.02c0,2.213-0.393,5.537-0.871,7.383l-0.87,3.361
					l2.627,2.252c5.149,4.41,14.932,8.553,23.108,9.791c4.119,0.623,9.984,0.332,13.991-0.695c3.171-0.813,5.751-3.547,7-7.422
					c2.264-7.025,2.079-11.57-0.542-13.289c-1.354-0.887-1.722-0.893-3.36-0.045c-4.033,2.084-10.722,3.797-14.838,3.789
					c-4.854-0.006-13.278-2.641-21.292-6.66L422.589,344.635L422.589,344.635z M172.678,344.637l-4.953,2.482
					c-8.014,4.02-16.437,6.652-21.293,6.66c-4.114,0.006-10.802-1.703-14.836-3.787c-1.637-0.848-2.004-0.844-3.358,0.043
					c-2.919,1.912-2.666,9.445,0.529,15.688c1.771,3.461,4.191,4.975,9.157,5.729c7.683,1.166,16.912-0.543,25.486-4.719
					c3.164-1.541,6.936-3.822,8.382-5.068l2.63-2.266l-0.873-3.359c-0.479-1.848-0.872-5.17-0.872-7.383V344.637L172.678,344.637z
					 M231.972,354.826l-4.02,6.758c-10.35,17.402-21.035,27.807-28.555,27.807c-1.336,0-2.43,0.307-2.43,0.68
					c0,2.262,6.166,9.666,10.164,12.201c3.985,2.529,7.556,2.496,10.506-0.096c3.656-3.211,11.294-15.387,17.841-28.445l2.884-5.752
					l-1.275-4.154c-0.701-2.283-2.139-5.242-3.195-6.576L231.972,354.826L231.972,354.826z M363.595,355.319l-1.775,2.174
					c-0.977,1.197-2.396,4.266-3.152,6.816l-1.377,4.635l4.431,8.467c5.979,11.424,11.368,19.982,14.891,23.645
					c2.632,2.736,3.202,3.035,5.788,3.035c3.664,0,7.549-2.389,11.527-7.092c5.082-6.006,5.49-7.607,1.942-7.607
					c-7.47,0-18.636-10.9-28.721-28.035L363.595,355.319z M175.819,362.338l-1.731,1.373c-2.669,2.117-9.562,5.951-13.719,7.631
					c-9.06,3.658-19.817,4.365-27.732,1.826c-1.156-0.371-1.579-0.004-2.714,2.342c-0.74,1.527-1.346,3.449-1.346,4.266
					c0,3.479,5.665,11.607,9.881,14.178c2.823,1.721,7.232,1.496,13.809-0.709c10.271-3.439,19.446-8.654,25.662-14.584l3.735-3.563
					l-0.433-3.881c-0.377-3.377-0.756-4.199-2.925-6.377L175.819,362.338z M419.452,362.338l-2.491,2.502
					c-2.163,2.172-2.547,3.004-2.92,6.344l-0.429,3.846l3.051,2.949c6.757,6.539,15.997,11.906,26.379,15.326
					c6.055,1.994,10.663,2.309,13.371,0.908c4.02-2.08,10.279-10.871,10.279-14.438c0-0.816-0.606-2.738-1.346-4.266
					c-1.137-2.348-1.561-2.713-2.717-2.342c-7.915,2.539-18.673,1.832-27.732-1.826c-4.156-1.68-11.049-5.514-13.718-7.631
					L419.452,362.338z M239.376,372.451l-2.43,4.795c-6.152,12.125-11.777,20.986-16.507,26.004l-3.125,3.311l2.69,2.92
					c1.663,1.805,3.239,2.92,4.131,2.92c1.828,0,16.717-15.219,17.35-17.734c0.439-1.752-0.701-15.902-1.609-19.977L239.376,372.451
					z M356.358,374.803c-0.12,0-0.207,0.1-0.274,0.281c-0.627,1.691-1.884,13.59-1.884,17.822v3.467l7.748,8.012
					c5.408,5.596,8.18,8.016,9.185,8.016c0.893,0,2.472-1.119,4.152-2.943l2.712-2.941l-3.209-3.287
					c-3.885-3.984-8.835-11.557-14.229-21.768C357.999,376.617,356.879,374.797,356.358,374.803z M412.13,378.596
					c-0.109,0.137-1.104,1.588-2.211,3.227c-1.107,1.639-3.021,3.604-4.258,4.367c-1.235,0.764-2.246,1.688-2.246,2.053
					c0,0.91,4.955,7.785,9.182,12.732c6.142,7.193,14.567,13.121,20.697,14.566c1.319,0.311,4.824,0.594,7.789,0.629
					c6.563,0.08,10.073-1.352,12.899-5.254c2.669-3.684,4.108-8.918,3.113-11.324c-0.723-1.744-0.926-1.828-3.595-1.461
					c-3.417,0.467-8.96-0.914-17.385-4.338c-7.083-2.875-13.899-7.008-19.623-11.895
					C414.203,379.946,412.239,378.459,412.13,378.596z M183.186,378.643c-0.082-0.109-2.448,1.656-5.257,3.926
					c-6.389,5.158-12.325,8.684-19.313,11.473c-8.047,3.211-13.534,4.543-16.848,4.09c-2.668-0.367-2.87-0.283-3.593,1.461
					c-1.713,4.137,2.617,12.688,7.75,15.305c2.474,1.262,3.539,1.393,9.501,1.178c5.554-0.201,7.345-0.531,10.365-1.914
					c5.319-2.434,9.187-5.266,14.239-10.43c4.461-4.559,11.825-14.199,11.825-15.48c0-0.371-1.013-1.297-2.248-2.061
					c-1.236-0.764-3.15-2.729-4.258-4.367C184.242,380.184,183.269,378.752,183.186,378.643L183.186,378.643z M193.775,391.328
					c-0.178,0.01-1.613,1.932-3.189,4.27c-4.063,6.023-12.182,14.385-17.17,17.678c-6.481,4.277-11.326,5.791-18.619,5.816
					c-3.347,0.01-6.297,0.307-6.555,0.656c-0.258,0.354-0.48,2.107-0.48,3.902c-0.017,5.295,3.111,8.912,9.672,11.176
					c8.24,2.846,16.445,0.949,22.006-5.09c3.295-3.576,16.248-19.1,20.195-24.199l2.589-3.348l-3.207-3.51
					c-1.765-1.932-3.593-4.379-4.063-5.441C194.483,392.176,193.952,391.315,193.775,391.328z M401.492,391.328
					c-0.177-0.014-0.708,0.848-1.178,1.91c-0.471,1.063-2.299,3.51-4.063,5.441l-3.207,3.51l2.726,3.533
					c3.865,5.008,16.655,20.32,20.092,24.051c1.613,1.75,4.373,3.83,6.246,4.699c7.785,3.625,19.679,0.941,23.955-5.404
					c1.46-2.166,2.047-7.844,0.963-9.32c-0.258-0.35-3.205-0.646-6.552-0.656c-7.294-0.025-12.141-1.539-18.622-5.816
					c-4.988-3.293-13.108-11.654-17.171-17.678C403.106,393.26,401.671,391.34,401.492,391.328z M310.097,404.088l-12.623,0.016
					l-12.623,0.02l-27.963,55.533c-15.378,30.541-27.961,55.701-27.965,55.92c0,0.219,5.105,0.316,11.346,0.219l11.347-0.172
					l22.452-44.744c13.303-26.504,22.813-44.742,23.33-44.742c0.519,0,10.061,18.301,23.41,44.902l22.533,44.902h11.182
					c6.149,0,11.182-0.146,11.182-0.322c0-0.178-12.512-25.342-27.803-55.924L310.097,404.088z M261.524,404.09l-23.97,47.938
					c-13.182,26.365-23.97,48.078-23.97,48.254c0,0.178,4.388,0.324,9.751,0.324h9.747l24.127-48.256l24.126-48.26h-9.906H261.524z
					 M313.293,404.09l24.127,48.26l24.126,48.256h9.749c5.361,0,9.751-0.146,9.751-0.324c0-0.176-10.789-21.889-23.972-48.254
					l-23.968-47.938h-9.907H313.293z M204.511,404.617c-0.485-0.039-0.695,0.258-1.066,0.852
					c-1.829,2.932-23.306,28.113-25.179,29.531c-2.577,1.941-5.874,3.326-9.328,3.91c-2.266,0.383-2.652,0.676-2.652,2.014
					c0,3.842,5.619,10.873,10.439,13.061c3.425,1.557,9.933,1.641,13.03,0.172c1.237-0.59,3.52-2.672,5.072-4.635
					c5.18-6.543,12.838-23.893,15.909-36.049c0.549-2.17,1.146-4.453,1.327-5.068c0.222-0.75-0.023-1.117-0.741-1.117
					c-0.588,0-2.429-0.684-4.093-1.52C205.757,405.028,204.996,404.655,204.511,404.617z M390.759,404.617
					c-0.485,0.037-1.248,0.41-2.721,1.15c-1.664,0.836-3.506,1.52-4.093,1.52c-0.718,0-0.96,0.367-0.74,1.117
					c0.182,0.615,0.776,2.898,1.325,5.068c4.428,17.52,14.763,37.643,20.877,40.656c3.015,1.484,9.71,1.412,13.135-0.145
					c4.82-2.188,10.439-9.219,10.439-13.061c0-1.338-0.386-1.631-2.652-2.014c-3.453-0.584-6.75-1.969-9.327-3.91
					c-1.875-1.418-23.348-26.6-25.177-29.531C391.454,404.875,391.243,404.578,390.759,404.617z M215.101,408.395l-1.476,5.678
					c-0.812,3.123-2.772,9.129-4.358,13.348c-6.521,17.354-13.406,27.836-19.731,30.043c-2.177,0.76-2.451,1.08-2.277,2.668
					c0.28,2.537,1.864,3.902,6.575,5.652c2.251,0.836,5.281,1.533,6.734,1.551c2.184,0.029,2.839-0.266,3.77-1.688
					c1.502-2.293,25.146-52.223,24.871-52.521c-0.119-0.127-0.99,0.377-1.935,1.121c-0.944,0.742-2.341,1.348-3.104,1.348
					c-1.623,0-4.453-1.99-7.151-5.035L215.101,408.395z M380.166,408.395l-1.916,2.164c-2.699,3.045-5.525,5.035-7.15,5.035
					c-0.762,0-2.16-0.605-3.105-1.348c-0.945-0.744-1.815-1.248-1.934-1.121c-0.288,0.309,24.322,52.215,25.334,53.434
					c1.061,1.277,6.087,0.785,10.923-1.072c3.762-1.447,5.398-3.076,5.715-5.693c0.144-1.186-0.293-1.625-2.3-2.33
					c-6.331-2.213-13.212-12.693-19.731-30.043c-1.587-4.219-3.547-10.225-4.359-13.348L380.166,408.395z M297.242,431.434
					c-0.229,0.252-11.903,23.398-25.943,51.434l-25.528,50.975h51.657h51.659l-25.716-51.432
					C309.229,454.119,297.472,431.182,297.242,431.434L297.242,431.434z"/>
			</g>
			
				<g id="g6964" transform="matrix(0.57503507,0,0,0.57503473,414.50365,84.340877)" inkscape:export-ydpi="200" inkscape:export-xdpi="200">
				<g id="g6966" transform="matrix(2.3401916,0,0,2.3401916,-716.01666,-489.0942)">
					<path id="path6968" inkscape:connector-curvature="0" sodipodi:nodetypes="sssscsscccccsscs" d="M215.104,487.594
						c-1.814-1.417-7.994-5.47-13.733-9.006c-18.734-11.543-30.302-25.703-33.023-40.417c-0.595-3.222-0.948-15.679-0.784-27.684
						l0.298-21.826l3.295-0.688c9.151-1.91,17.427-9.296,20.354-18.164l1.239-3.759h38.983h38.982l-0.341,37.14l-0.34,37.14
						l-4.093,8.179c-6.21,12.409-13.035,19.272-31.041,31.215c-8.681,5.761-15.946,10.466-16.143,10.46
						C218.561,490.176,216.916,489.012,215.104,487.594z"/>
					<path id="path6970" inkscape:connector-curvature="0" fill="#FFFFFF" d="M193.464,367.725l-1.207,3.658
						c-2.848,8.629-10.901,15.815-19.804,17.673l-3.207,0.669l-0.291,21.237c-0.16,11.681,0.183,23.803,0.762,26.938
						c2.647,14.318,13.906,28.096,32.133,39.325c5.586,3.443,11.598,7.386,13.362,8.763c1.764,1.38,3.365,2.514,3.557,2.521
						c0.192,0.007,7.261-4.575,15.708-10.179c17.519-11.621,24.161-18.298,30.203-30.372l3.983-7.958l0.332-36.14l0.332-36.137
						h-37.934H193.464z M194.711,370.661h36.087h36.086l-0.316,34.381l-0.316,34.379l-3.789,7.572
						c-5.748,11.486-12.066,17.841-28.733,28.897c-8.036,5.331-14.764,9.689-14.946,9.682c-0.181-0.006-1.704-1.084-3.382-2.396
						c-1.679-1.312-7.398-5.064-12.713-8.338c-17.341-10.684-28.051-23.791-30.569-37.413c-0.552-2.983-0.878-14.517-0.726-25.63
						l0.274-20.203l3.054-0.636c8.471-1.768,16.13-8.607,18.839-16.816L194.711,370.661z"/>
				</g>
				
					<path id="path6972" sodipodi:type="star" inkscape:transform-center-y="-19.33623" sodipodi:arg2="-0.52359878" sodipodi:arg1="-1.5707963" sodipodi:r2="43.003029" sodipodi:r1="86.006058" sodipodi:cy="551.87421" sodipodi:cx="-283.67905" sodipodi:sides="3" inkscape:randomized="0" inkscape:rounded="0" inkscape:flatsided="true" stroke="#FFFFFF" stroke-width="2.6716" stroke-linecap="round" stroke-linejoin="round" d="
					M-204.172,401.474l87.286,151.181h-174.572L-204.172,401.474z"/>
				<g id="g6974" transform="matrix(1.9709514,0,0,1.9709514,-1026.8384,-559.03331)">
					<path id="path6976" inkscape:connector-curvature="0" fill="#FFFFFF" stroke="#FFFFFF" stroke-width="0.6778" d="
						M417.396,564.037V599.8"/>
					<path id="path6978" inkscape:connector-curvature="0" fill="#FFFFFF" stroke="#FFFFFF" stroke-width="0.5741" d="
						M423.906,563.297v25.663"/>
					<path id="path6980" inkscape:connector-curvature="0" fill="#FFFFFF" stroke="#FFFFFF" stroke-width="0.5741" d="
						M410.884,563.297v25.663"/>
				</g>
				
					<g id="g6982" transform="matrix(-1.0372994,1.6759056,-1.6759056,-1.0372994,1051.4084,505.78133)" inkscape:transform-center-x="19.656622" inkscape:transform-center-y="-10.137512">
					<path id="path6984" inkscape:connector-curvature="0" fill="#FFFFFF" stroke="#FFFFFF" stroke-width="0.6778" d="
						M334.537,568.15l0,35.762"/>
					<path id="path6986" inkscape:connector-curvature="0" fill="#FFFFFF" stroke="#FFFFFF" stroke-width="0.5741" d="
						M341.047,567.411l0.001,25.663"/>
					<path id="path6988" inkscape:connector-curvature="0" fill="#FFFFFF" stroke="#FFFFFF" stroke-width="0.5741" d="
						M328.027,567.41l0,25.663"/>
				</g>
				
					<g id="g6990" transform="matrix(1.0372994,1.6759056,1.6759056,-1.0372994,-1618.7309,505.75811)" inkscape:transform-center-x="-19.6566" inkscape:transform-center-y="-10.137513">
					<path id="path6992" inkscape:connector-curvature="0" fill="#FFFFFF" stroke="#FFFFFF" stroke-width="0.6778" d="
						M376.998,636.755l0,35.763"/>
					<path id="path6994" inkscape:connector-curvature="0" fill="#FFFFFF" stroke="#FFFFFF" stroke-width="0.5741" d="
						M383.508,636.016l0.001,25.662"/>
					<path id="path6996" inkscape:connector-curvature="0" fill="#FFFFFF" stroke="#FFFFFF" stroke-width="0.5741" d="
						M370.486,636.015l0.001,25.663"/>
				</g>
				
					<path id="path6998" inkscape:connector-curvature="0" sodipodi:nodetypes="cssssccsscscssccccccsscssssssccsssccscssssscssssssccsccscsssccsssssscssssccsccssccscscscccsscssscssscssccsssssssssscsssssssscsssssccsscsscsscssscsssssssssscssccccscssscscccscccscsccscccccccccsscccccsscssccccscssscccccscccccccssscccsccssccssscssscssssssccsssscsccssssccscscccscsccsccsscscccccssccccscsccs" fill="#FFFFFF" d="
					M-258.052,545.736c-0.493-0.795-1.819-1.447-2.947-1.447s-2.862-0.978-3.852-2.17c-1.432-1.722-1.23-2.126,0.977-1.943
					c3.882,0.316,3.495-4.341-0.408-4.898c-4.609-0.659-4.171,6.813,0.623,10.696C-260.114,548.844-256.235,548.681-258.052,545.736
					z M-142.586,545.573c5.302-4.983,4.376-6.314-1.658-2.378c-2.89,1.885-4.949,3.95-4.575,4.592
					C-147.731,549.649-146.431,549.184-142.586,545.573z M-223.218,445.511c0.333,1.708,1.573,4.49,2.751,6.178
					c3.675,5.251,2.335,6.515-1.695,1.596c-4.337-5.292-5.343-3.471-1.114,2.021c1.793,2.337,3.658,3.227,5.36,2.575
					c2.352-0.903,1.945-1.766-1.59-8.739l-1.337-2.955C-222.586,444.221-224.111,442.928-223.218,445.511z M-152.208,545.845
					c-1.316-2.133-101.891-2.133-101.891,0c0,1.005,18.18,1.552,51.427,1.552C-168.786,547.397-151.576,546.867-152.208,545.845
					L-152.208,545.845z M-154.54,541.178c0-1.002-17.373-1.556-49.002-1.556c-31.63,0-49,0.554-49,1.556
					c0,1.002,17.37,1.556,49,1.556C-171.913,542.734-154.54,542.18-154.54,541.178z M-255.653,539.779
					c0-1.297,17.704-19.055,26.444-26.517c2.7-2.306,3.103-3.186,1.316-2.87c-1.415,0.248-8.495,6.114-15.731,13.029
					c-11.341,10.838-13.522,12.316-15.78,10.665c-2.296-1.678-0.751-3.305,12.623-13.25c8.381-6.233,15.531-11.555,15.887-11.83
					c0.357-0.272,0.234-0.91-0.273-1.42c-0.508-0.506-7.97,4.283-16.584,10.641c-8.612,6.362-15.198,12.024-14.632,12.591
					c0.564,0.564-1.542,1.026-4.677,1.026c-4.033,0-5.703,0.683-5.703,2.333c0,1.284,0.7,2.33,1.552,2.33
					c0.856,0,1.557-0.696,1.557-1.552c0-0.856,1.445-1.556,3.215-1.556c4.86,0,9.587,3.047,8.62,5.564
					c-0.465,1.219-0.172,2.215,0.659,2.215C-256.332,541.178-255.653,540.55-255.653,539.779L-255.653,539.779z M-147.298,537.276
					c0.988-2.13,1.564-3.875,1.277-3.875c-1.151,0-5.407,4.983-5.407,6.335C-151.429,542.516-149.08,541.117-147.298,537.276z
					 M-140.852,539.31c2.417-2.415,2.381-4.361-0.078-4.331c-3.284,0.041-6.29,2.642-5.163,4.466
					C-144.714,541.677-143.178,541.637-140.852,539.31L-140.852,539.31z M-234.576,526.909
					c10.336-12.458,12.751-15.964,10.395-15.091c-1.598,0.594-22.14,24.302-22.14,25.559
					C-246.321,539.904-242.619,536.606-234.576,526.909L-234.576,526.909z M-226.906,525.992c4.264-6.62,8.293-12.431,8.955-12.91
					c0.661-0.482-1.425-2.072-4.638-3.532c-4.534-2.068-5.166-2.133-2.823-0.295c1.661,1.301,3.548,2.367,4.191,2.367
					c0.647,0-2.637,5.533-7.296,12.295c-4.658,6.762-8.471,12.713-8.471,13.223C-236.987,540.19-233.723,536.579-226.906,525.992z
					 M-221.445,527.205c2.89-5.975,4.918-11.198,4.504-11.609c-0.413-0.414-3.335,4.473-6.496,10.862
					c-3.16,6.382-5.188,11.606-4.506,11.606C-227.258,538.064-224.333,533.179-221.445,527.205z M-215.401,526.729
					c3.648-9.942,4.008-11.789,1.866-9.588c-1.571,1.62-7.894,17.689-7.895,20.074
					C-221.429,540.363-218.592,535.424-215.401,526.729z M-210.085,528.346l2.553-9.724l-0.803,9.724
					c-0.518,6.26-0.224,9.717,0.827,9.717c0.898,0,1.641-1.919,1.651-4.273c0.022-2.354,0.45-6.905,0.982-10.112
					c0.856-5.19,0.605-5.835-2.291-5.835c-3.242,0-3.777,1.165-7.347,15.947c-0.567,2.354-0.377,4.28,0.423,4.28
					C-213.293,538.07-211.489,533.692-210.085,528.346L-210.085,528.346z M-199.579,519.4c0.815,0,1.493,3.325,1.506,7.387
					c0.02,4.066,0.701,8.44,1.532,9.721c1.157,1.793,1.508,1.25,1.515-2.33c0.02-10.152-1.815-16.334-4.83-16.334
					c-2.581,0-2.873,1.175-2.609,10.502l0.301,10.499l0.552-9.724C-201.308,523.774-200.395,519.4-199.579,519.4z M-188.763,536.42
					c0-1.658-2.814-14.395-4.064-18.409c-0.372-1.192-1.043-1.8-1.489-1.355c-1.235,1.233,2.789,21.408,4.264,21.408
					C-189.344,538.064-188.763,537.327-188.763,536.42L-188.763,536.42z M-185.62,526.498c-1.87-5.618-4.005-10.21-4.743-10.21
					s0.027,4.025,1.7,8.946c4.49,13.192,4.563,13.352,5.54,12.374C-182.627,537.116-183.75,532.113-185.62,526.498L-185.62,526.498z
					 M-179.594,527.565c-4.789-10.702-7.615-15.013-7.615-11.616c0,2.69,9.801,22.115,11.159,22.115
					C-175.417,538.064-177.008,533.342-179.594,527.565L-179.594,527.565z M-167.949,536.121c-0.63-1.07-3.906-6.352-7.279-11.738
					s-5.845-10.081-5.497-10.431c0.348-0.346,4.984,4.935,10.303,11.742c5.317,6.803,10.378,12.37,11.246,12.37
					s-2.948-5.75-8.483-12.778c-5.535-7.031-9.755-13.087-9.386-13.457c0.372-0.374,5.869,4.854,12.216,11.613
					c6.348,6.762,12.095,11.745,12.776,11.079c0.679-0.669-4.259-6.742-10.974-13.494c-13.316-13.399-11.429-12.764-20.763-6.943
					c-0.971,0.608,14.203,23.986,15.566,23.986C-167.441,538.07-167.318,537.191-167.949,536.121L-167.949,536.121z
					 M-134.32,534.178c0-1.641-1.503-2.272-5.054-2.123c-3.656,0.156-4.086,0.401-1.556,0.886c1.924,0.37,3.5,1.325,3.5,2.123
					c0,0.795,0.7,1.444,1.556,1.444C-135.02,536.508-134.32,535.462-134.32,534.178z M-143.652,529.762
					c0-0.289-5.986-5.271-13.304-11.069c-20.384-16.154-15.101-14.7,13.158,3.621c2.615,1.698,3.543,1.834,3.084,0.455
					c-0.362-1.083-6.635-5.703-13.941-10.261c-11.832-7.384-13.6-8.057-16.195-6.158c-1.6,1.172-2.609,2.367-2.245,2.656
					c0.367,0.292,6.509,5.2,13.654,10.906c11.31,9.038,15.789,11.827,15.789,9.847V529.762z M-236.698,505.756
					c-2.075-0.693-31.399,16.415-31.399,18.314c0,0.761,7.44-2.924,16.536-8.189C-242.466,510.62-235.778,506.061-236.698,505.756z
					 M-181.671,509.312c6.037-2.938,12.25-6.749,13.804-8.464c2.753-3.043,2.738-3.104-0.691-2.445
					c-1.936,0.374-4.648,1.634-6.029,2.806c-5.438,4.602-13.583,6.525-27.398,6.457c-12.321-0.058-15.337-0.662-25.151-5.054
					c-6.131-2.744-12.628-4.99-14.435-4.99c-3.911,0-5.596-3.424-3.515-7.146c0.822-1.467,8.619-6.409,17.326-10.984
					c14.017-7.36,16.905-8.311,25.146-8.311c10.789,0,18.742,3.444,29.239,12.662c7.489,6.582,11.057,7.578,11.057,3.081
					c0-4.195-23.83-19.863-33.658-22.132c-11.711-2.704-21.884,0.842-38.153,13.297c-12.895,9.87-18.182,16.13-16.252,19.248
					c0.532,0.866,3.763,2.045,7.182,2.619c3.419,0.577,6.214,1.766,6.214,2.639c0,0.87,1.087,1.165,2.415,0.659
					c1.386-0.533,2.009-0.272,1.464,0.608c-0.839,1.359,1.121,2.184,4.176,1.759c0.579-0.078,4.081,1.179,7.776,2.802
					c3.699,1.617,10.225,3.495,14.503,4.174l7.778,1.23l-5.445,1.151c-3.852,0.812-2.941,0.937,3.111,0.414
					C-195.836,514.93-188.566,512.668-181.671,509.312L-181.671,509.312z M-210.963,513.792c-0.516-0.516-1.86-0.571-2.98-0.119
					c-1.241,0.492-0.875,0.863,0.939,0.937C-211.365,514.675-210.447,514.312-210.963,513.792L-210.963,513.792z M-149.763,508.833
					c-5.304-3.689-15.67-8.179-15.67-6.79c0,1.277,15.417,9.381,17.891,9.402C-146.685,511.445-147.684,510.277-149.763,508.833
					L-149.763,508.833z M-177.874,500.562c3.848-2.174,6.807-4.826,6.571-5.893c-0.236-1.07,0.243-1.532,1.061-1.029
					c2.468,1.528,3.087-1.314,0.759-3.468c-1.771-1.637-2.191-1.637-2.279,0c-0.059,1.1-0.671,0.605-1.357-1.107
					c-1.119-2.789-1.488-2.547-3.573,2.333l-2.325,5.445l0.538-7.778l0.538-7.775l-1.574,6.192
					c-0.864,3.407-2.218,6.841-3.006,7.629s-0.65-1.111,0.302-4.222c1.297-4.219,1.275-6.542-0.082-9.181l-1.815-3.532l0.898,3.526
					c1.352,5.295-2.06,13.773-7.326,18.202c-11.986,10.088-32.444,0.836-32.444-14.67c0-2.873-0.645-4.507-1.556-3.943
					c-2.204,1.359-1.933,10.621,0.389,13.223c1.654,1.855,1.539,1.875-0.778,0.119c-1.618-1.223-2.807-4.348-2.933-7.703
					c-0.136-3.624-0.453-4.388-0.886-2.14c-0.37,1.922-1.367,3.498-2.215,3.498c-0.846,0-1.095-0.876-0.554-1.943
					c0.542-1.07-0.115-0.588-1.464,1.073c-4.332,5.343-3.03,8.505,4.94,11.993c12.555,5.496,14.741,5.91,29.166,5.496
					c11.659-0.329,15.174-1.06,21.002-4.348V500.562z M-195.541,499.744c2.946-1.399,6.379-4.511,7.624-6.922
					c2.901-5.608,2.952-12.309,0.098-12.309c-1.194,0-2.588-1.104-3.106-2.445c-0.562-1.464-2.34-2.242-4.443-1.943
					c-2.571,0.363-3.507,1.535-3.507,4.388c0,3.257,0.827,3.967,5.1,4.378l5.103,0.489l-3.546,3.128
					c-1.95,1.722-2.496,2.612-1.213,1.987c1.284-0.628,0.583,0.557-1.556,2.632c-2.138,2.079-4.239,3.414-4.667,2.969
					s-1.829-0.808-3.113-0.808c-1.282,0-2.682,0.363-3.11,0.808s-2.527-0.89-4.667-2.969c-2.14-2.075-2.838-3.261-1.556-2.632
					c1.284,0.625,0.681-0.312-1.338-2.085c-2.333-2.055-2.901-3.278-1.557-3.356c1.783-0.105,1.781-0.255,0-0.965
					c-1.79-0.71-1.79-1.053,0-2.187c1.557-0.985,1.19-1.348-1.379-1.369c-2.923-0.02-3.5,0.819-3.5,5.074
					c0,6.402,3.65,11.715,9.921,14.445c6.352,2.765,8.014,2.727,14.413-0.309H-195.541z M-237.931,493.606
					c1.617-4.215,1.061-6.82-1.267-5.927c-2.609,1.002-4.392,4.956-3.145,6.97C-241.005,496.819-238.979,496.341-237.931,493.606
					L-237.931,493.606z M-231.826,473.689c13.156-9.864,29.341-14.048,40.312-10.427c3.009,0.992,8.851,4.208,12.98,7.143
					c4.127,2.935,7.834,5.006,8.237,4.602c1.588-1.59-7.099-8.79-15.901-13.189c-16.132-8.063-28.58-6.036-44.039,7.17
					c-4.567,3.903-8.305,6.226-8.305,5.159c0-1.063-0.418-1.515-0.932-1.002c-0.966,0.965,0.508,4.252,1.907,4.252
					C-237.133,477.398-234.552,475.73-231.826,473.689L-231.826,473.689z M-222.691,460.286c0.96,0,0.476-1.399-1.073-3.111
					c-1.549-1.708-3.546-3.108-4.443-3.108c-0.995,0-0.902,0.72,0.241,1.865c2.7,2.7,2.301,5.095-0.465,2.802
					c-2.816-2.337-3.133,0.092-0.389,2.975c1.591,1.668,1.238,1.827-1.931,0.863c-3.611-1.097-3.716-0.978-1.557,1.671
					c2.114,2.592,2.062,2.751-0.572,1.763c-2.182-0.819-2.673-0.509-1.994,1.264c0.56,1.464,0.02,2.354-1.474,2.354
					c-1.404,0-1.922,0.734-1.264,1.8c0.73,1.182,3.193-0.425,7.148-4.667c3.318-3.556,6.819-6.467,7.773-6.467V460.286z
					 M-174.415,463.506c-1.958-3.41-3.118-4.151-4.596-2.921c-2.51,2.082-2.605-0.601-0.109-3.098
					c2.49-2.49-0.664-2.415-3.301,0.078c-1.697,1.603-1.751,1.348-0.311-1.45c2.629-5.122,1.973-8.141-0.7-3.217
					c-3.254,5.995-4.261,5.339-1.598-1.039c3.082-7.374,1.058-8.44-2.466-1.294c-1.583,3.21-2.446,4.436-1.919,2.724
					c0.525-1.712,1.253-5.91,1.618-9.333c0.642-6.042,0.572-5.978-2.451,2.333c-2.758,7.581-3.028,7.89-2.371,2.721
					c0.408-3.21,1.189-8.382,1.734-11.5c0.633-3.615,0.43-5.322-0.56-4.71c-0.854,0.53-1.987,4.129-2.519,8.001
					c-0.532,3.871-1.382,8.704-1.892,10.736c-0.774,3.087-0.212,3.865,3.47,4.762c4.392,1.073,16.38,8.393,17.36,10.604
					c0.287,0.639,1.128,1.165,1.873,1.165C-172.407,468.068-172.976,466.013-174.415,463.506L-174.415,463.506z M-212.873,452.899
					c-0.61-1.498-2.204-5.859-3.546-9.693c-1.34-3.835-3.232-5.312-3.588-4.239c-0.866,2.595,5.022,16.656,6.829,16.656
					C-212.401,455.623-212.264,454.397-212.873,452.899z M-211.301,443.25c-1.477-6.029-3.359-10.961-4.181-10.961
					c-0.82,0-1.134,1.224-0.698,2.722c0.436,1.497,1.95,6.799,3.361,11.781C-209.243,459.427-208.03,456.598-211.301,443.25z
					 M-196.456,439.663c0.601-7.908,0.477-15.041-0.273-15.852c-0.81-0.875-1.367,0.457-1.367,3.266
					c0,2.609-0.448,10.27-0.995,17.032c-0.547,6.759-0.423,11.759,0.273,11.107C-198.121,454.567-197.058,447.566-196.456,439.663z
					 M-207.194,437.666c-1.257-9.017-2.85-15.832-3.539-15.139c-1.398,1.396,3.191,31.54,4.804,31.54
					C-205.367,454.067-205.951,446.687-207.194,437.666z M-202.013,431.538c-0.623-11.642-1.511-20.783-1.973-20.323
					c-1.058,1.056-0.389,39.948,0.718,41.738C-201.249,456.221-200.957,451.252-202.013,431.538z"/>
			</g>
		</g>
		<g id="flowRoot6490">
		</g>
		<g id="flowRoot7819" transform="matrix(0.5976554,0,0,0.5976554,-22.880327,329.81777)">
		</g>
		<g id="flowRoot7827">
		</g>
	</g>
</g>
</svg>
